<?xml version="1.0" encoding="utf-8"?>
<!-- Generator: Adobe Illustrator 19.0.0, SVG Export Plug-In . SVG Version: 6.00 Build 0)  -->
<svg version="1.1" xmlns="http://www.w3.org/2000/svg" xmlns:xlink="http://www.w3.org/1999/xlink" x="0px" y="0px"
	 viewBox="0 0 570.1 128.6" enable-background="new 0 0 570.1 128.6" xml:space="preserve">
<g id="レイヤー_1">
</g>
<g id="BACK">
	<g>
		<path fill="#FFFFFF" d="M553,0H17.1C7.7,0,0,7.9,0,17.7v93.3c0,9.8,7.7,17.7,17.1,17.7H553c9.5,0,17.1-7.9,17.1-17.7V17.7
			C570.1,7.9,562.4,0,553,0z M563.8,110.9c0,6.3-4.8,11.3-10.8,11.3H17.1c-5.9,0-10.8-5.1-10.8-11.3V17.7c0-6.3,4.8-11.3,10.8-11.3
			H553c5.9,0,10.8,5.1,10.8,11.3V110.9z"/>
		<g>
			<path fill="#FFFFFF" d="M118.4,46.8c0,7.8-3,14.2-9.1,19.2c-3.3,2.8-7.3,4.9-11.8,6.4c-4.5,1.5-9.5,2.2-14.9,2.2
				c-5.4,0-10.3-0.7-14.9-2.2c-4.5-1.5-8.5-3.6-11.7-6.4c-3-2.5-5.3-5.3-6.8-8.6c-1.5-3.2-2.2-6.8-2.2-10.7c0-3.8,0.8-7.3,2.3-10.6
				c1.5-3.2,3.8-6.1,6.8-8.5c3.3-2.8,7.3-4.9,11.9-6.4c4.6-1.5,9.5-2.3,14.8-2.3c5.3,0,10.2,0.8,14.8,2.3c4.6,1.5,8.5,3.7,11.9,6.4
				C115.3,32.8,118.4,39.1,118.4,46.8z M105.2,46.8c0-2.6-0.5-5-1.6-7.2c-1.1-2.1-2.6-4-4.5-5.5c-2-1.6-4.3-2.8-7.1-3.6
				c-2.8-0.9-5.9-1.3-9.3-1.3c-3.4,0-6.5,0.4-9.3,1.3c-2.8,0.9-5.2,2.1-7.1,3.6c-2,1.6-3.5,3.4-4.5,5.5c-1.1,2.2-1.6,4.5-1.6,7.2
				c0,2.7,0.5,5.1,1.6,7.3c1,2.2,2.5,4,4.5,5.6c2,1.5,4.3,2.7,7.1,3.6c2.8,0.9,5.9,1.3,9.4,1.3s6.6-0.4,9.4-1.3
				c2.8-0.8,5.2-2,7.1-3.6c2-1.5,3.5-3.4,4.5-5.6C104.7,51.9,105.2,49.5,105.2,46.8z"/>
			<path fill="#FFFFFF" d="M164,73.1h-11.9L121,20.6h14.3L158,59.1l22.7-38.5H195L164,73.1z"/>
			<path fill="#FFFFFF" d="M204.4,73.1V20.6h57v10h-44.2v10.9h30.7v10h-30.7v11.6h46.2v10H204.4z"/>
			<path fill="#FFFFFF" d="M324.5,73.1l-35.6-37.5h-0.2v37.5h-12.8V20.6h14.9l35.6,37.6h0.3V20.6h12.8v52.5H324.5z"/>
			<path fill="#FFFFFF" d="M418.2,30.9c-3.8-0.9-7.7-1.4-11.8-1.4c-5.5,0-9.7,0.5-12.4,1.5c-2.8,1-4.2,2.3-4.2,4
				c0,1.8,1.5,3,4.6,3.8c1.3,0.3,2.6,0.5,4.1,0.7c1.5,0.1,3,0.3,4.7,0.3c1.7,0.1,3.4,0.1,5.3,0.2c1.9,0.1,3.8,0.2,5.8,0.4
				c4.1,0.4,7.7,0.9,10.7,1.7c3,0.7,5.6,1.7,7.6,2.9c2,1.2,3.5,2.8,4.5,4.6c1,1.8,1.5,4,1.5,6.6c0,5.7-2.6,10.2-7.8,13.3
				c-5.2,3.2-12.8,4.8-22.9,4.8c-6.6,0-12.7-0.8-18.2-2.3c-5.6-1.5-10.9-4.1-15.9-7.5l7-8.6c4.5,2.8,9.1,4.8,13.6,6.1
				c4.5,1.3,9.2,2,14.2,2c5.3,0,9.4-0.7,12.3-2c2.9-1.3,4.3-3.1,4.3-5.3c0-1.2-0.4-2.1-1.2-2.7c-0.8-0.6-2-1.1-3.6-1.5
				c-1.5-0.3-3.4-0.6-5.7-0.7c-2.2-0.1-4.7-0.2-7.6-0.4c-5.1-0.2-9.6-0.6-13.4-1.3c-3.8-0.7-7-1.6-9.5-2.8c-2.5-1.2-4.4-2.8-5.7-4.6
				c-1.3-1.9-1.9-4.1-1.9-6.7c0-5.2,2.5-9.3,7.5-12.3c5-3,12.3-4.5,21.8-4.5c12.8,0,23.1,2.6,30.9,7.7l-7.3,8.4
				C425.7,33.4,421.9,31.9,418.2,30.9z"/>
			<path fill="#FFFFFF" d="M484.3,30.6v42.5h-12.8V30.6h-25v-10h62.8v10H484.3z"/>
			<path fill="#FFFFFF" d="M509.8,73.1v-10h13.3v10H509.8z"/>
			<path fill="#FFFFFF" d="M77.8,109.1h-2.9l-3.6-7.6H60.6l-3.5,7.6h-2.9l10.6-22.2h2.6L77.8,109.1z M66.1,90.1l-4.2,8.8h8.2
				L66.1,90.1z"/>
			<path fill="#FFFFFF" d="M113.8,103c0,1-0.3,1.9-0.8,2.8c-0.5,0.8-1.2,1.5-2.1,2.1c-0.9,0.6-2,1-3.2,1.3c-1.2,0.3-2.5,0.5-4,0.5
				c-1.5,0-3-0.2-4.5-0.7c-1.5-0.5-2.7-1.2-3.9-2.1c-1.1-1-2-2.2-2.7-3.7c-0.7-1.5-1-3.2-1-5.2c0-1.5,0.3-2.9,0.9-4.3
				c0.6-1.4,1.4-2.6,2.5-3.7c1.1-1.1,2.3-1.9,3.8-2.5c1.5-0.6,3.2-0.9,5-0.9c1.3,0,2.5,0.2,3.6,0.5c1,0.3,1.9,0.7,2.7,1.1
				c0.8,0.4,1.4,0.9,1.9,1.4c0.5,0.5,1,0.9,1.3,1.2l-1.8,1.9c-0.4-0.3-0.8-0.6-1.3-1c-0.5-0.4-1-0.8-1.7-1.1
				c-0.6-0.4-1.4-0.7-2.1-0.9c-0.8-0.2-1.6-0.4-2.5-0.4c-1.5,0-2.8,0.3-4,0.7c-1.2,0.5-2.2,1.2-3.1,2c-0.8,0.8-1.5,1.8-2,2.8
				c-0.5,1.1-0.7,2.2-0.7,3.3c0,1.3,0.2,2.6,0.7,3.7c0.5,1.1,1.1,2.1,1.9,2.9c0.8,0.8,1.8,1.4,3,1.9c1.2,0.5,2.5,0.7,4,0.7
				c1.2,0,2.3-0.1,3.2-0.4c0.9-0.3,1.7-0.6,2.3-1c0.6-0.4,1.1-0.9,1.4-1.4c0.3-0.5,0.5-1,0.5-1.5v-3.1h-7.7v-2.6h10.3V103z"/>
			<path fill="#FFFFFF" d="M137.6,109.1H121V86.9h2.6v19.6h14V109.1z"/>
			<path fill="#FFFFFF" d="M161.8,100.5c0,1.4-0.2,2.7-0.6,3.8c-0.4,1.1-1,2.1-1.8,2.9c-0.8,0.8-1.8,1.4-3.1,1.8
				c-1.2,0.4-2.7,0.6-4.4,0.6c-1.8,0-3.3-0.2-4.5-0.6c-1.2-0.4-2.3-1-3-1.8c-0.8-0.8-1.4-1.7-1.7-2.9c-0.4-1.1-0.5-2.4-0.5-3.8V86.9
				h2.6v13.6c0,2.4,0.6,4,1.8,5c1.2,1,3,1.5,5.4,1.5s4.1-0.5,5.4-1.5c1.2-1,1.8-2.7,1.8-5V86.9h2.6V100.5z"/>
			<path fill="#FFFFFF" d="M178.5,109.1h-2.6V89.5h-8.1v-2.6h18.9v2.6h-8.1V109.1z"/>
			<path fill="#FFFFFF" d="M211.4,109.1h-18.9V86.9h18.3v2.6h-15.7v6.8h8.2v2.6h-8.2v7.6h16.3V109.1z"/>
			<path fill="#FFFFFF" d="M237.3,109.1h-2.6L220.3,91h-0.1v18.1h-2.6V86.9h2.6l14.4,18.4h0.1V86.9h2.6V109.1z"/>
			<path fill="#FFFFFF" d="M252.1,102.7h-8.2v-2.2h8.2V102.7z"/>
			<path fill="#FFFFFF" d="M261.3,109.1h-2.6V86.9h18.3v2.6h-15.7v6.8h9.8v2.6h-9.8V109.1z"/>
			<path fill="#FFFFFF" d="M302.1,109.1h-3l-5.1-9.3h-8.8v9.3h-2.6V86.9h11.1c0.6,0,1.2,0,1.8,0.1c0.7,0,1.3,0.1,2,0.3
				c0.7,0.2,1.3,0.4,1.9,0.7c0.6,0.3,1.2,0.7,1.7,1.1c0.5,0.5,0.9,1.1,1.2,1.8c0.3,0.7,0.4,1.5,0.4,2.5c0,1.2-0.2,2.2-0.5,3
				c-0.3,0.8-0.8,1.5-1.3,2c-0.6,0.5-1.2,0.9-1.9,1.1c-0.7,0.3-1.3,0.4-2,0.5L302.1,109.1z M294.7,97.3c0.7,0,1.4,0,2.1-0.1
				c0.6-0.1,1.2-0.2,1.7-0.5c0.5-0.3,0.9-0.7,1.1-1.2c0.3-0.5,0.4-1.2,0.4-2.2c0-0.7-0.1-1.3-0.4-1.8c-0.3-0.5-0.6-0.9-1.1-1.2
				c-0.5-0.3-1-0.5-1.6-0.7c-0.6-0.1-1.2-0.2-1.8-0.2h-10v7.8H294.7z"/>
			<path fill="#FFFFFF" d="M328.3,109.1h-18.9V86.9h18.3v2.6H312v6.8h8.3v2.6H312v7.6h16.3V109.1z"/>
			<path fill="#FFFFFF" d="M353.3,109.1h-18.9V86.9h18.3v2.6h-15.7v6.8h8.2v2.6h-8.2v7.6h16.3V109.1z"/>
			<path fill="#FFFFFF" d="M382.7,86.9c0.9,0,1.7,0.1,2.6,0.3c0.8,0.2,1.6,0.6,2.2,1.1c0.7,0.5,1.2,1.1,1.6,1.9
				c0.4,0.8,0.6,1.7,0.6,2.8c0,0.6-0.1,1.2-0.2,1.7c-0.1,0.5-0.3,0.9-0.5,1.3c-0.2,0.4-0.4,0.7-0.7,1c-0.3,0.3-0.5,0.4-0.7,0.6
				c0.4,0.2,0.7,0.5,1.1,0.8c0.4,0.3,0.7,0.7,1,1.2c0.3,0.5,0.6,1,0.8,1.5c0.2,0.6,0.3,1.2,0.3,1.8c0,1.3-0.2,2.3-0.7,3.2
				c-0.5,0.8-1.1,1.5-1.9,1.9c-0.8,0.5-1.6,0.8-2.6,0.9c-0.9,0.2-1.9,0.2-2.9,0.2h-12.4V86.9H382.7z M382.7,96.5
				c1.4,0,2.5-0.3,3.3-1c0.7-0.7,1.1-1.5,1.1-2.6c0-0.9-0.4-1.7-1.1-2.4c-0.7-0.7-1.8-1-3.3-1H373v6.9H382.7z M382.7,106.5
				c0.8,0,1.6-0.1,2.2-0.2c0.7-0.1,1.2-0.3,1.7-0.6c0.5-0.3,0.8-0.6,1.1-1.1c0.3-0.5,0.4-1,0.4-1.7c0-1.3-0.5-2.3-1.4-3
				c-1-0.7-2.3-1-4-1H373v7.5H382.7z"/>
			<path fill="#FFFFFF" d="M417.8,109.1h-2.9l-3.6-7.6h-10.7l-3.5,7.6h-2.9l10.6-22.2h2.6L417.8,109.1z M406.1,90.1l-4.2,8.8h8.2
				L406.1,90.1z"/>
			<path fill="#FFFFFF" d="M442.9,109.1h-3.1l-7.9-12.5l-6.1,5.8v6.7h-2.6V86.9h2.6v12.2l12.4-12.2h3.5l-7.8,7.8L442.9,109.1z"/>
			<path fill="#FFFFFF" d="M467,109.1h-18.9V86.9h18.3v2.6h-15.7v6.8h8.2v2.6h-8.2v7.6H467V109.1z"/>
			<path fill="#FFFFFF" d="M492.5,109.1h-3l-5.1-9.3h-8.8v9.3h-2.6V86.9H484c0.6,0,1.2,0,1.8,0.1c0.7,0,1.3,0.1,2,0.3
				c0.7,0.2,1.3,0.4,1.9,0.7c0.6,0.3,1.2,0.7,1.7,1.1c0.5,0.5,0.9,1.1,1.2,1.8c0.3,0.7,0.4,1.5,0.4,2.5c0,1.2-0.2,2.2-0.5,3
				c-0.4,0.8-0.8,1.5-1.3,2c-0.6,0.5-1.2,0.9-1.8,1.1c-0.7,0.3-1.3,0.4-2,0.5L492.5,109.1z M485.1,97.3c0.7,0,1.4,0,2.1-0.1
				c0.6-0.1,1.2-0.2,1.7-0.5c0.5-0.3,0.9-0.7,1.1-1.2c0.3-0.5,0.4-1.2,0.4-2.2c0-0.7-0.1-1.3-0.4-1.8c-0.3-0.5-0.7-0.9-1.1-1.2
				c-0.5-0.3-1-0.5-1.6-0.7c-0.6-0.1-1.2-0.2-1.8-0.2h-10v7.8H485.1z"/>
			<path fill="#FFFFFF" d="M507.9,109.1h-2.6V98.9l-9.4-12h3.4l7.4,9.4l7.4-9.4h3.4l-9.5,12V109.1z"/>
		</g>
	</g>
</g>
</svg>
