<?xml version="1.0" encoding="utf-8"?>
<!-- Generator: Adobe Illustrator 19.0.0, SVG Export Plug-In . SVG Version: 6.00 Build 0)  -->
<?xml-stylesheet type="text/css" href="../../style.min.css"?>
<svg version="1.1" xmlns="http://www.w3.org/2000/svg" xmlns:xlink="http://www.w3.org/1999/xlink" x="0px" y="0px"
	 viewBox="0 0 878 146.2" enable-background="new 0 0 878 146.2" xml:space="preserve">
<g id="レイヤー_1">
</g>
<g id="BACK" class="logo-svg">
	<g>
		<path class="rolling-pin1" fill="#231815" d="M845.8,40.6c-3.7,0-7.2,0.7-10.5,1.8c-21.4,3.4-69.2,9.3-83.5-1.8c-6.5-5-11.9-5.9-16.2-3.9V17.3
			c0-1.8-0.2-3.5-0.7-5.2C733,5.1,727.5,0,720.9,0h0H157.1h0c-8.1,0-14.7,7.8-14.7,17.3v19.4c-4.4-2-9.8-1.1-16.2,3.9
			c-14.2,11.1-62.1,5.1-83.5,1.8c-3.3-1.1-6.8-1.8-10.5-1.8C14.4,40.6,0,55,0,72.8c0,17.8,14.4,32.2,32.2,32.2
			c3.8,0,7.4-0.7,10.7-1.9c21.6-3.5,69.3-9.5,83.2,1.9c6.5,5.3,11.9,6.3,16.2,4.5v19.2c0,9.6,6.6,17.4,14.7,17.4h0h563.8h0
			c6.6,0,12.2-5.1,14-12.2c0.4-1.6,0.7-3.4,0.7-5.2v-19.2c4.4,1.8,9.8,0.8,16.2-4.5c13.9-11.4,61.7-5.3,83.2-1.9
			c3.4,1.2,7,1.9,10.7,1.9c17.8,0,32.2-14.4,32.2-32.2C878,55,863.6,40.6,845.8,40.6z"/>
		<path class="rolling-pin2" fill="#231815" d="M706.9,11.9H171.1c-7.7,0-14,6.5-14,14.5v93.3c0,8,6.2,14.5,14,14.5h535.8c7.7,0,14-6.5,14-14.5V26.4
			C720.9,18.4,714.6,11.9,706.9,11.9z"/>
		<path class="copy" fill="#FFFFFF" d="M706.9,8.8H171.1c-9.5,0-17.1,7.9-17.1,17.7v93.3c0,9.8,7.7,17.7,17.1,17.7h535.8
			c9.5,0,17.1-7.9,17.1-17.7V26.4C724.1,16.7,716.4,8.8,706.9,8.8z M717.7,119.7c0,6.3-4.8,11.3-10.8,11.3H171.1
			c-5.9,0-10.8-5.1-10.8-11.3V26.4c0-6.3,4.8-11.3,10.8-11.3h535.8c5.9,0,10.8,5.1,10.8,11.3V119.7z"/>
		<g class="copy">
			<path fill="#FFFFFF" d="M272.3,55.6c0,7.8-3,14.2-9.1,19.2c-3.3,2.8-7.3,4.9-11.8,6.4c-4.5,1.5-9.5,2.2-14.9,2.2
				c-5.4,0-10.3-0.7-14.9-2.2c-4.5-1.5-8.5-3.6-11.7-6.4c-3-2.5-5.3-5.3-6.8-8.6c-1.5-3.2-2.2-6.8-2.2-10.7c0-3.8,0.8-7.3,2.3-10.6
				c1.5-3.2,3.8-6.1,6.8-8.5c3.3-2.8,7.3-4.9,11.9-6.4c4.6-1.5,9.5-2.3,14.8-2.3c5.3,0,10.2,0.8,14.8,2.3c4.6,1.5,8.5,3.7,11.9,6.4
				C269.3,41.5,272.3,47.9,272.3,55.6z M259.2,55.6c0-2.6-0.5-5-1.6-7.2c-1.1-2.1-2.6-4-4.5-5.5c-2-1.6-4.3-2.8-7.1-3.6
				c-2.8-0.9-5.9-1.3-9.3-1.3c-3.4,0-6.5,0.4-9.3,1.3c-2.8,0.9-5.2,2.1-7.1,3.6c-2,1.6-3.5,3.4-4.5,5.5c-1.1,2.2-1.6,4.5-1.6,7.2
				c0,2.7,0.5,5.1,1.6,7.3c1,2.2,2.5,4,4.5,5.6c2,1.5,4.3,2.7,7.1,3.6c2.8,0.9,5.9,1.3,9.4,1.3s6.6-0.4,9.4-1.3
				c2.8-0.8,5.2-2,7.1-3.6c2-1.5,3.5-3.4,4.5-5.6C258.6,60.6,259.2,58.2,259.2,55.6z"/>
			<path fill="#FFFFFF" d="M317.9,81.9H306L275,29.4h14.3L312,67.8l22.7-38.5H349L317.9,81.9z"/>
			<path fill="#FFFFFF" d="M358.3,81.9V29.4h57v10h-44.2v10.9h30.7v10h-30.7v11.6h46.2v10H358.3z"/>
			<path fill="#FFFFFF" d="M478.4,81.9l-35.6-37.5h-0.2v37.5h-12.8V29.4h14.9l35.6,37.6h0.3V29.4h12.8v52.5H478.4z"/>
			<path fill="#FFFFFF" d="M572.1,39.7c-3.8-0.9-7.7-1.4-11.8-1.4c-5.5,0-9.7,0.5-12.4,1.5c-2.8,1-4.2,2.3-4.2,4
				c0,1.8,1.5,3,4.6,3.8c1.3,0.3,2.6,0.5,4.1,0.7c1.5,0.1,3,0.3,4.7,0.3c1.7,0.1,3.4,0.1,5.3,0.2c1.9,0.1,3.8,0.2,5.8,0.4
				c4.1,0.4,7.7,0.9,10.7,1.7c3,0.7,5.6,1.7,7.6,2.9c2,1.2,3.5,2.8,4.5,4.6c1,1.8,1.5,4,1.5,6.6c0,5.7-2.6,10.2-7.8,13.3
				c-5.2,3.2-12.8,4.8-22.9,4.8c-6.6,0-12.7-0.8-18.2-2.3c-5.6-1.5-10.9-4.1-15.9-7.5l7-8.6c4.5,2.8,9.1,4.8,13.6,6.1
				c4.5,1.3,9.2,2,14.2,2c5.3,0,9.4-0.7,12.3-2c2.9-1.3,4.3-3.1,4.3-5.3c0-1.2-0.4-2.1-1.2-2.7c-0.8-0.6-2-1.1-3.6-1.5
				c-1.5-0.3-3.4-0.6-5.7-0.7c-2.2-0.1-4.7-0.2-7.6-0.4c-5.1-0.2-9.6-0.6-13.4-1.3c-3.8-0.7-7-1.6-9.5-2.8c-2.5-1.2-4.4-2.8-5.7-4.6
				c-1.3-1.9-1.9-4.1-1.9-6.7c0-5.2,2.5-9.3,7.5-12.3c5-3,12.3-4.5,21.8-4.5c12.8,0,23.1,2.6,30.9,7.7l-7.3,8.4
				C579.6,42.1,575.9,40.6,572.1,39.7z"/>
			<path fill="#FFFFFF" d="M638.2,39.4v42.5h-12.8V39.4h-25v-10h62.8v10H638.2z"/>
			<path fill="#FFFFFF" d="M663.8,81.9v-10h13.3v10H663.8z"/>
			<path fill="#FFFFFF" d="M231.8,117.9h-2.9l-3.6-7.6h-10.7l-3.5,7.6h-2.9l10.6-22.2h2.6L231.8,117.9z M220.1,98.8l-4.2,8.8h8.2
				L220.1,98.8z"/>
			<path fill="#FFFFFF" d="M267.7,111.7c0,1-0.3,1.9-0.8,2.8c-0.5,0.8-1.2,1.5-2.1,2.1c-0.9,0.6-2,1-3.2,1.3c-1.2,0.3-2.5,0.5-4,0.5
				c-1.5,0-3-0.2-4.5-0.7c-1.5-0.5-2.7-1.2-3.9-2.1c-1.1-1-2-2.2-2.7-3.7c-0.7-1.5-1-3.2-1-5.2c0-1.5,0.3-2.9,0.9-4.3
				c0.6-1.4,1.4-2.6,2.5-3.7c1.1-1.1,2.3-1.9,3.8-2.5c1.5-0.6,3.2-0.9,5-0.9c1.3,0,2.5,0.2,3.6,0.5c1,0.3,1.9,0.7,2.7,1.1
				c0.8,0.4,1.4,0.9,1.9,1.4c0.5,0.5,1,0.9,1.3,1.2l-1.8,1.9c-0.4-0.3-0.8-0.6-1.3-1c-0.5-0.4-1-0.8-1.7-1.1
				c-0.6-0.4-1.4-0.7-2.1-0.9c-0.8-0.2-1.6-0.4-2.5-0.4c-1.5,0-2.8,0.3-4,0.7c-1.2,0.5-2.2,1.2-3.1,2c-0.8,0.8-1.5,1.8-2,2.8
				c-0.5,1.1-0.7,2.2-0.7,3.3c0,1.3,0.2,2.6,0.7,3.7c0.5,1.1,1.1,2.1,1.9,2.9c0.8,0.8,1.8,1.4,3,1.9c1.2,0.5,2.5,0.7,4,0.7
				c1.2,0,2.3-0.1,3.2-0.4c0.9-0.3,1.7-0.6,2.3-1c0.6-0.4,1.1-0.9,1.4-1.4c0.3-0.5,0.5-1,0.5-1.5v-3.1h-7.7v-2.6h10.3V111.7z"/>
			<path fill="#FFFFFF" d="M291.6,117.9H275V95.7h2.6v19.6h14V117.9z"/>
			<path fill="#FFFFFF" d="M315.8,109.3c0,1.4-0.2,2.7-0.6,3.8s-1,2.1-1.8,2.9c-0.8,0.8-1.8,1.4-3.1,1.8c-1.2,0.4-2.7,0.6-4.4,0.6
				c-1.8,0-3.3-0.2-4.5-0.6c-1.2-0.4-2.3-1-3-1.8c-0.8-0.8-1.4-1.7-1.7-2.9c-0.4-1.1-0.5-2.4-0.5-3.8V95.7h2.6v13.6
				c0,2.4,0.6,4,1.8,5c1.2,1,3,1.5,5.4,1.5s4.1-0.5,5.4-1.5c1.2-1,1.8-2.7,1.8-5V95.7h2.6V109.3z"/>
			<path fill="#FFFFFF" d="M332.5,117.9h-2.6V98.3h-8.1v-2.6h18.9v2.6h-8.1V117.9z"/>
			<path fill="#FFFFFF" d="M365.4,117.9h-18.9V95.7h18.3v2.6h-15.7v6.8h8.2v2.6h-8.2v7.6h16.3V117.9z"/>
			<path fill="#FFFFFF" d="M391.2,117.9h-2.6l-14.4-18.1h-0.1v18.1h-2.6V95.7h2.6l14.4,18.4h0.1V95.7h2.6V117.9z"/>
			<path fill="#FFFFFF" d="M406.1,111.4h-8.2v-2.2h8.2V111.4z"/>
			<path fill="#FFFFFF" d="M415.2,117.9h-2.6V95.7h18.3v2.6h-15.7v6.8h9.8v2.6h-9.8V117.9z"/>
			<path fill="#FFFFFF" d="M456.1,117.9h-3l-5.1-9.3h-8.8v9.3h-2.6V95.7h11.1c0.6,0,1.2,0,1.8,0.1c0.7,0,1.3,0.1,2,0.3
				c0.7,0.2,1.3,0.4,1.9,0.7c0.6,0.3,1.2,0.7,1.7,1.1c0.5,0.5,0.9,1.1,1.2,1.8c0.3,0.7,0.4,1.5,0.4,2.5c0,1.2-0.2,2.2-0.5,3
				c-0.3,0.8-0.8,1.5-1.3,2c-0.6,0.5-1.2,0.9-1.9,1.1c-0.7,0.3-1.3,0.4-2,0.5L456.1,117.9z M448.7,106c0.7,0,1.4,0,2.1-0.1
				c0.6-0.1,1.2-0.2,1.7-0.5c0.5-0.3,0.9-0.7,1.1-1.2c0.3-0.5,0.4-1.2,0.4-2.2c0-0.7-0.1-1.3-0.4-1.8c-0.3-0.5-0.6-0.9-1.1-1.2
				c-0.5-0.3-1-0.5-1.6-0.7c-0.6-0.1-1.2-0.2-1.8-0.2h-10v7.8H448.7z"/>
			<path fill="#FFFFFF" d="M482.2,117.9h-18.9V95.7h18.3v2.6h-15.7v6.8h8.3v2.6h-8.3v7.6h16.3V117.9z"/>
			<path fill="#FFFFFF" d="M507.2,117.9h-18.9V95.7h18.3v2.6h-15.7v6.8h8.2v2.6h-8.2v7.6h16.3V117.9z"/>
			<path fill="#FFFFFF" d="M536.7,95.7c0.9,0,1.7,0.1,2.6,0.3c0.8,0.2,1.6,0.6,2.2,1.1c0.7,0.5,1.2,1.1,1.6,1.9
				c0.4,0.8,0.6,1.7,0.6,2.8c0,0.6-0.1,1.2-0.2,1.7c-0.1,0.5-0.3,0.9-0.5,1.3c-0.2,0.4-0.4,0.7-0.7,1c-0.3,0.3-0.5,0.4-0.7,0.6
				c0.4,0.2,0.7,0.5,1.1,0.8c0.4,0.3,0.7,0.7,1,1.2c0.3,0.5,0.6,1,0.8,1.5c0.2,0.6,0.3,1.2,0.3,1.8c0,1.3-0.2,2.3-0.7,3.2
				c-0.5,0.8-1.1,1.5-1.9,1.9c-0.8,0.5-1.6,0.8-2.6,0.9c-0.9,0.2-1.9,0.2-2.9,0.2h-12.4V95.7H536.7z M536.7,105.2
				c1.4,0,2.5-0.3,3.3-1c0.7-0.7,1.1-1.5,1.1-2.6c0-0.9-0.4-1.7-1.1-2.4c-0.7-0.7-1.8-1-3.3-1h-9.8v6.9H536.7z M536.7,115.3
				c0.8,0,1.6-0.1,2.2-0.2c0.7-0.1,1.2-0.3,1.7-0.6c0.5-0.3,0.8-0.6,1.1-1.1c0.3-0.5,0.4-1,0.4-1.7c0-1.3-0.5-2.3-1.4-3
				c-1-0.7-2.3-1-4-1h-9.8v7.5H536.7z"/>
			<path fill="#FFFFFF" d="M571.8,117.9h-2.9l-3.6-7.6h-10.7l-3.5,7.6h-2.9l10.6-22.2h2.6L571.8,117.9z M560,98.8l-4.2,8.8h8.2
				L560,98.8z"/>
			<path fill="#FFFFFF" d="M596.8,117.9h-3.1l-7.9-12.5l-6.1,5.8v6.7h-2.6V95.7h2.6v12.2l12.4-12.2h3.5l-7.8,7.8L596.8,117.9z"/>
			<path fill="#FFFFFF" d="M620.9,117.9H602V95.7h18.3v2.6h-15.7v6.8h8.2v2.6h-8.2v7.6h16.3V117.9z"/>
			<path fill="#FFFFFF" d="M646.4,117.9h-3l-5.1-9.3h-8.8v9.3h-2.6V95.7H638c0.6,0,1.2,0,1.8,0.1c0.7,0,1.3,0.1,2,0.3
				c0.7,0.2,1.3,0.4,1.9,0.7c0.6,0.3,1.2,0.7,1.7,1.1c0.5,0.5,0.9,1.1,1.2,1.8c0.3,0.7,0.4,1.5,0.4,2.5c0,1.2-0.2,2.2-0.5,3
				c-0.4,0.8-0.8,1.5-1.3,2c-0.6,0.5-1.2,0.9-1.8,1.1c-0.7,0.3-1.3,0.4-2,0.5L646.4,117.9z M639,106c0.7,0,1.4,0,2.1-0.1
				c0.6-0.1,1.2-0.2,1.7-0.5c0.5-0.3,0.9-0.7,1.1-1.2c0.3-0.5,0.4-1.2,0.4-2.2c0-0.7-0.1-1.3-0.4-1.8c-0.3-0.5-0.7-0.9-1.1-1.2
				c-0.5-0.3-1-0.5-1.6-0.7c-0.6-0.1-1.2-0.2-1.8-0.2h-10v7.8H639z"/>
			<path fill="#FFFFFF" d="M661.8,117.9h-2.6v-10.3l-9.4-12h3.4l7.4,9.4l7.4-9.4h3.4l-9.5,12V117.9z"/>
		</g>
	</g>
</g>
</svg>
